# xmcd
#
# Track frame offsets: 
#        150
#        22144
#        33725
#        41819
#        61317
#        74136
#        94258
#        104531
#        121954
#        156833
#        171715
#
# Disc length: 2386 seconds
#
# Revision: 1
# Processed by: cddbd v1.5.2PL0 Copyright (c) Steve Scherf et al.
# Submitted via: ExactAudioCopy v0.99pb5
#
DISCID=ab09500b
DTITLE=Bigband der Universität Bonn - Mozart and Pospiech: Requiem
DYEAR=2006
DGENRE=Jazz
TTITLE0=Introitus
TTITLE1=Kyrie
TTITLE2=Dies irae
TTITLE3=Tuba mirum
TTITLE4=Rex tremendae
TTITLE5=Recordare
TTITLE6=Confutatis
TTITLE7=Lacrimosa
TTITLE8=Domine Jesu
TTITLE9=Hostias
TTITLE10=Amen
EXTD=YEAR: 2006
EXTT0=
EXTT1=
EXTT2=
EXTT3=
EXTT4=
EXTT5=
EXTT6=
EXTT7=
EXTT8=
EXTT9=
EXTT10=
PLAYORDER=
